<?xml version="1.0" encoding="utf-8"?>
<!-- Generator: Adobe Illustrator 16.0.0, SVG Export Plug-In . SVG Version: 6.00 Build 0)  -->
<!DOCTYPE svg PUBLIC "-//W3C//DTD SVG 1.1//EN" "http://www.w3.org/Graphics/SVG/1.1/DTD/svg11.dtd">
<svg version="1.1" id="Layer_1" xmlns="http://www.w3.org/2000/svg" xmlns:xlink="http://www.w3.org/1999/xlink" x="0px" y="0px"
	 width="460px" height="345px" viewBox="0 0 460 345" enable-background="new 0 0 460 345" xml:space="preserve">
<rect fill="#B5D1C2" width="460" height="345"/>
<g>
	<defs>
		<rect id="SVGID_1_" width="460" height="345"/>
	</defs>
	<clipPath id="SVGID_2_">
		<use xlink:href="#SVGID_1_"  overflow="visible"/>
	</clipPath>
	
		<line clip-path="url(#SVGID_2_)" fill="none" stroke="#FFFFC9" stroke-width="3" stroke-miterlimit="10" x1="154.49" y1="232.233" x2="394.728" y2="-8"/>
	<polyline clip-path="url(#SVGID_2_)" fill="none" stroke="#FFFFC9" stroke-width="3" stroke-miterlimit="10" points="
		154.49,355.54 154.49,127.145 331.599,-49.96 	"/>
	
		<line clip-path="url(#SVGID_2_)" fill="none" stroke="#FFFFC9" stroke-width="7" stroke-miterlimit="10" x1="-21.48" y1="101.094" x2="295.434" y2="418"/>
	
		<line clip-path="url(#SVGID_2_)" fill="none" stroke="#FFFFC9" stroke-width="3" stroke-miterlimit="10" x1="-8.38" y1="-35.628" x2="382.795" y2="355.54"/>
	
		<line clip-path="url(#SVGID_2_)" fill="none" stroke="#FFFFC9" stroke-width="3" stroke-miterlimit="10" x1="120.004" y1="-17.708" x2="262.221" y2="124.505"/>
</g>
<g>
	<path d="M237.236,159.184c-0.594-0.424-1.001-0.526-1.374-0.153l-1.442,1.442l1.883,1.883c0.459,0.457,0.832,0.321,1.434-0.281
		l0.849-0.848c0.747-0.746,0.645-1.136,0.297-2.569l0.237-0.237l1.272,1.78l-4.8,4.8l-0.331-0.33
		c0.551-0.585,0.763-0.967,0.245-1.484l-4.053-4.053c-0.518-0.518-0.899-0.306-1.484,0.245l-0.33-0.331l4.757-4.757l1.416,1.416
		l-0.229,0.229c-1.043-0.433-1.569-0.483-2.256,0.204l-1.62,1.62l2.323,2.323l1.442-1.441c0.373-0.373,0.271-0.78-0.152-1.373
		l0.289-0.289l1.916,1.916L237.236,159.184z"/>
	<path d="M243.432,150.902l4.121,0.627c0.527,0.084,0.865-0.018,1.214-0.365l0.331,0.33l-2.478,2.478l-0.331-0.331
		c0.68-0.678,0.671-0.822,0.484-1.009c-0.119-0.119-0.391-0.171-0.67-0.213l-2.748-0.44l0.322,2.815
		c0.033,0.306,0.084,0.544,0.229,0.688c0.187,0.187,0.34,0.203,1.035-0.492l0.33,0.331l-2.12,2.12l-0.331-0.331
		c0.34-0.34,0.434-0.603,0.356-1.204l-0.466-4.028l-3.816-0.577c-0.543-0.085-0.865,0.017-1.204,0.356l-0.331-0.33l2.502-2.502
		l0.331,0.33c-0.653,0.653-0.696,0.832-0.509,1.018c0.144,0.145,0.415,0.195,0.711,0.238l2.385,0.398l-0.289-2.494
		c-0.043-0.297-0.102-0.559-0.246-0.703c-0.187-0.187-0.364-0.145-1.018,0.509l-0.33-0.331l2.119-2.119l0.331,0.33
		c-0.339,0.339-0.433,0.602-0.356,1.204L243.432,150.902z"/>
	<path d="M252.342,138.871l2.899,6.479l-0.288,0.288l-6.615-2.815l3.189,4.089c0.051,0.066,0.16,0.193,0.186,0.219
		c0.416,0.416,0.721,0.314,1.35-0.263l0.33,0.331l-2.002,2.002l-0.33-0.331c0.467-0.501,0.551-0.772,0.203-1.222l-3.629-4.698
		c-0.449-0.45-0.756-0.448-1.34,0.103l-0.331-0.331l1.552-1.552c0.212,0.178,0.348,0.246,0.602,0.348l5.938,2.578l-2.663-5.852
		c-0.11-0.246-0.161-0.398-0.34-0.61l1.501-1.501l0.331,0.33c-0.542,0.576-0.542,0.881-0.093,1.331l4.697,3.63
		c0.45,0.348,0.722,0.263,1.214-0.195l0.331,0.33l-2.334,2.334l-0.33-0.331c0.568-0.62,0.68-0.933,0.264-1.349
		c-0.025-0.025-0.152-0.137-0.221-0.186L252.342,138.871z"/>
	<path d="M264.168,130.232c1.942,1.942,1.893,4.469,0.348,6.014c-1.755,1.755-4.146,1.416-5.725-0.162
		c-1.941-1.941-1.891-4.469-0.347-6.013C260.199,128.316,262.591,128.655,264.168,130.232z M263.405,131.284
		c-1.298-1.298-3.206-2.036-4.614-0.628c-1.203,1.205-0.686,2.926,0.764,4.377c1.298,1.297,3.207,2.035,4.613,0.627
		C265.373,134.456,264.855,132.734,263.405,131.284z"/>
	<path d="M269.422,126.998c1.061,1.06,2.223,1.051,3.189,0.084c1.145-1.145,1.289-2.256,0.067-3.477l-2.85-2.85
		c-0.517-0.518-0.907-0.297-1.483,0.245l-0.33-0.331l2.213-2.213l0.33,0.331c-0.542,0.576-0.754,0.958-0.236,1.476l3.01,3.01
		c1.408,1.408,1,3.139-0.213,4.352c-1.424,1.424-3.01,1.704-4.443,0.271l-2.993-2.994c-0.517-0.518-0.907-0.297-1.484,0.246
		l-0.331-0.33l2.545-2.545l0.33,0.33c-0.543,0.578-0.754,0.959-0.237,1.477L269.422,126.998z"/>
	<path d="M277.951,110.734l1.908,1.637l-0.271,0.271c-1.662-0.662-1.984-0.797-2.757-0.025l-0.644,0.645l4.621,4.621
		c0.518,0.518,0.934,0.271,1.518-0.279l0.331,0.331l-2.612,2.612l-0.33-0.331c0.551-0.585,0.788-0.992,0.271-1.509l-4.623-4.623
		l-0.627,0.628c-0.771,0.771-0.636,1.094,0.018,2.765l-0.264,0.264l-1.645-1.9L277.951,110.734z"/>
	<path d="M288.557,106.336l-3.147,3.147l1.899,1.899c0.518,0.518,0.916,0.289,1.484-0.246l0.331,0.331l-2.544,2.544l-0.33-0.33
		c0.55-0.585,0.762-0.967,0.245-1.484l-4.054-4.054c-0.518-0.517-0.899-0.305-1.484,0.245l-0.33-0.33l2.544-2.544l0.331,0.331
		c-0.535,0.568-0.764,0.967-0.246,1.484l1.764,1.764l3.146-3.147l-1.764-1.764c-0.518-0.517-0.916-0.288-1.484,0.246l-0.33-0.331
		l2.543-2.543l0.331,0.33c-0.552,0.586-0.763,0.967-0.245,1.484l4.053,4.053c0.518,0.518,0.898,0.307,1.484-0.245l0.33,0.331
		l-2.543,2.543l-0.331-0.33c0.534-0.568,0.763-0.967,0.246-1.484L288.557,106.336z"/>
	<path d="M300.605,90.607l2.9,6.479l-0.289,0.289l-6.615-2.816l3.189,4.088c0.051,0.068,0.162,0.195,0.188,0.221
		c0.416,0.416,0.721,0.312,1.348-0.264l0.331,0.331l-2.002,2.002l-0.331-0.331c0.467-0.5,0.552-0.771,0.205-1.221l-3.631-4.699
		c-0.449-0.449-0.755-0.448-1.34,0.102l-0.33-0.33l1.552-1.552c0.212,0.178,0.348,0.246,0.603,0.349l5.936,2.577l-2.662-5.852
		c-0.111-0.245-0.162-0.399-0.34-0.61l1.501-1.501l0.331,0.331c-0.543,0.576-0.543,0.881-0.094,1.33l4.698,3.631
		c0.45,0.348,0.722,0.262,1.214-0.195l0.33,0.33l-2.332,2.332l-0.331-0.33c0.567-0.619,0.679-0.933,0.263-1.349
		c-0.025-0.025-0.152-0.136-0.221-0.187L300.605,90.607z"/>
	<path d="M311.694,84.962l-2.501,2.501l0.551,1.299c0.076,0.178,0.153,0.339,0.246,0.432c0.264,0.264,0.568,0.145,1.17-0.424
		l0.331,0.331L309.592,91l-0.331-0.33c0.196-0.264,0.339-0.51,0.204-0.832l-2.816-6.836l-0.822-0.296l0.941-0.942l7.717,3.055
		c0.322,0.135,0.544,0.017,0.824-0.195l0.33,0.33l-2.272,2.272l-0.331-0.331c0.568-0.602,0.688-0.891,0.424-1.152
		c-0.102-0.102-0.254-0.17-0.432-0.246L311.694,84.962z M308.973,86.938l2.197-2.196l-3.775-1.535L308.973,86.938z"/>
	<path d="M314.634,74.052c1.51-1.51,2.858-1.483,3.841-0.501c0.959,0.959,0.671,2.332-0.059,3.215l3.197,0.348
		c0.611,0.068,1.213-0.061,1.697-0.492l0.33,0.33l-1.213,1.213c-0.509,0.119-0.873,0.111-1.518,0.025l-3.283-0.414l-0.449,0.449
		l1.646,1.645c0.517,0.518,0.907,0.297,1.476-0.238l0.331,0.331l-2.536,2.536l-0.33-0.331c0.551-0.585,0.762-0.966,0.245-1.483
		l-4.054-4.054c-0.518-0.517-0.898-0.306-1.483,0.245l-0.331-0.33L314.634,74.052z M314.21,75.256l2.595,2.595l0.594-0.594
		c1.009-1.009,1.051-1.933,0.178-2.807c-0.721-0.721-1.729-0.831-2.807,0.245L314.21,75.256z"/>
	<path d="M322.051,68.535c-0.518-0.518-0.899-0.306-1.484,0.244l-0.33-0.33l2.544-2.544l0.331,0.331
		c-0.535,0.568-0.755,0.958-0.238,1.475l4.055,4.055c0.517,0.517,0.906,0.297,1.475-0.238l0.331,0.331l-2.544,2.544l-0.33-0.33
		c0.55-0.585,0.762-0.967,0.244-1.484L322.051,68.535z M329.827,68.764c1.018,0.051,1.349-0.076,1.765-0.425l0.33,0.331
		l-1.145,1.145c-0.433,0.128-0.891,0.145-1.578,0.102l-4.266-0.312l0.086-4.174c0.008-0.178-0.001-0.372-0.129-0.5
		c-0.152-0.152-0.287-0.102-0.914,0.441l-0.331-0.331l2.162-2.162l0.331,0.331c-0.382,0.415-0.492,0.813-0.501,1.365l-0.085,3.952
		L329.827,68.764z"/>
	<path d="M336.014,60.406c-0.594-0.424-1.001-0.526-1.374-0.153l-1.442,1.442l1.883,1.883c0.459,0.457,0.832,0.321,1.434-0.281
		l0.849-0.848c0.747-0.746,0.645-1.136,0.296-2.568l0.238-0.238l1.271,1.781l-4.799,4.799l-0.331-0.33
		c0.551-0.585,0.763-0.967,0.245-1.484l-4.053-4.053c-0.518-0.518-0.899-0.306-1.484,0.245l-0.33-0.331l4.757-4.757l1.416,1.416
		l-0.229,0.229c-1.044-0.433-1.569-0.483-2.256,0.204l-1.62,1.62l2.323,2.323l1.442-1.441c0.373-0.373,0.271-0.78-0.152-1.373
		l0.288-0.289l1.917,1.916L336.014,60.406z"/>
	<path d="M341.293,47.393l1.908,1.637l-0.271,0.271c-1.662-0.662-1.984-0.798-2.756-0.025l-0.645,0.644l4.622,4.622
		c0.517,0.518,0.933,0.271,1.518-0.279l0.331,0.33l-2.612,2.612l-0.331-0.331c0.552-0.585,0.789-0.992,0.271-1.509l-4.622-4.622
		l-0.627,0.627c-0.772,0.771-0.636,1.094,0.017,2.766l-0.263,0.263l-1.646-1.899L341.293,47.393z"/>
</g>
<g>
	<path d="M257.121,239.207l-1.483,1.484c-0.518,0.517-0.18,0.992,0.466,1.704l-0.331,0.331L253,239.953l0.331-0.33
		c0.584,0.55,0.966,0.762,1.482,0.244l4.055-4.053c0.517-0.518,0.305-0.899-0.246-1.484l0.331-0.33l2.526,2.526
		c1.629,1.628,1.365,3.079,0.484,3.96c-0.992,0.992-2.418,1.146-3.859-0.296L257.121,239.207z M257.511,238.816l0.67,0.67
		c1.043,1.043,1.908,1.061,2.842,0.127c0.806-0.806,0.94-1.823-0.102-2.865l-0.67-0.67L257.511,238.816z"/>
	<path d="M260.322,247.275l0.331-0.33c0.584,0.55,0.967,0.762,1.483,0.245l4.054-4.054c0.518-0.518,0.305-0.899-0.246-1.484
		l0.331-0.33l2.544,2.544l-0.33,0.331c-0.586-0.552-0.968-0.764-1.484-0.246l-4.055,4.053c-0.517,0.518-0.305,0.899,0.246,1.484
		l-0.33,0.331L260.322,247.275z"/>
	<path d="M271.519,248.296c0.061-0.737,0.076-0.976-0.33-1.399l0.331-0.33l1.45,1.449l-0.941,7.998l3.52-3.52
		c0.518-0.518,0.305-0.898-0.246-1.484l0.33-0.33l2.223,2.222l-0.33,0.331c-0.586-0.552-0.968-0.764-1.484-0.246l-5.004,5.003
		l-0.348-0.349l0.941-8.471l-3.757,3.757c-0.517,0.517-0.306,0.897,0.245,1.483l-0.33,0.33l-2.222-2.221l0.331-0.33
		c0.584,0.55,0.966,0.762,1.482,0.244L271.519,248.296z"/>
	<path d="M280.344,263.125c0.425-0.594,0.526-1.002,0.153-1.375l-1.442-1.441l-1.883,1.883c-0.458,0.458-0.321,0.832,0.28,1.434
		l0.848,0.848c0.747,0.747,1.137,0.645,2.57,0.297l0.236,0.238l-1.779,1.271l-4.801-4.8l0.33-0.331
		c0.586,0.551,0.967,0.764,1.484,0.246l4.054-4.054c0.517-0.517,0.306-0.899-0.245-1.483l0.33-0.331l4.758,4.757l-1.416,1.416
		l-0.229-0.229c0.432-1.043,0.482-1.568-0.205-2.256l-1.619-1.619l-2.324,2.322l1.442,1.442c0.373,0.373,0.78,0.272,1.374-0.151
		l0.288,0.288l-1.917,1.917L280.344,263.125z"/>
	<path d="M286.974,272.927l1.332-1.45l0.297,0.297c-0.637,1.145-0.779,2.324,0.084,3.188c0.799,0.799,1.671,0.892,2.367,0.195
		c0.584-0.584,0.475-1.238-0.17-2.646c-0.713-1.543-0.916-2.562,0.042-3.52c0.899-0.899,2.265-0.924,3.452,0.263
		c0.687,0.688,1.076,1.535,1.229,2.299l-1.298,1.297l-0.279-0.279c0.627-1.018,0.703-2.111-0.119-2.934
		c-0.713-0.713-1.484-0.67-2.027-0.127c-0.576,0.576-0.551,1.127,0.11,2.568c0.789,1.705,0.941,2.739,0,3.681
		c-1.085,1.085-2.628,0.729-3.757-0.397C287.44,274.563,287.034,273.613,286.974,272.927z"/>
	<path d="M304.228,279.274l-1.637,1.907l-0.271-0.271c0.662-1.662,0.797-1.984,0.025-2.756l-0.645-0.645l-4.621,4.623
		c-0.518,0.517-0.271,0.932,0.278,1.517l-0.331,0.331l-2.611-2.611l0.331-0.331c0.585,0.552,0.992,0.788,1.509,0.271l4.623-4.621
		l-0.627-0.627c-0.772-0.772-1.095-0.637-2.766,0.016l-0.264-0.262l1.9-1.646L304.228,279.274z"/>
	<path d="M309.396,284.443c1.51,1.509,1.484,2.857,0.501,3.841c-0.958,0.958-2.331,0.671-3.214-0.059l-0.348,3.196
		c-0.068,0.611,0.06,1.213,0.492,1.697l-0.33,0.33l-1.214-1.213c-0.118-0.508-0.11-0.873-0.025-1.518l0.415-3.282l-0.449-0.449
		l-1.645,1.646c-0.518,0.517-0.297,0.906,0.237,1.476l-0.331,0.331l-2.535-2.536l0.33-0.331c0.585,0.551,0.967,0.763,1.484,0.246
		l4.053-4.055c0.518-0.517,0.306-0.898-0.244-1.482l0.33-0.331L309.396,284.443z M308.192,284.02l-2.596,2.594l0.594,0.594
		c1.01,1.01,1.934,1.052,2.807,0.178c0.721-0.721,0.832-1.729-0.245-2.806L308.192,284.02z"/>
	<path d="M314.862,297.644c0.424-0.593,0.525-1.001,0.152-1.374l-1.441-1.442l-1.883,1.883c-0.458,0.458-0.322,0.831,0.281,1.435
		l0.848,0.848c0.746,0.746,1.135,0.645,2.568,0.297l0.238,0.236l-1.781,1.273l-4.799-4.801l0.33-0.33
		c0.584,0.551,0.967,0.762,1.483,0.245l4.054-4.054c0.518-0.518,0.305-0.898-0.245-1.483l0.331-0.331l4.756,4.758l-1.416,1.416
		l-0.229-0.229c0.434-1.043,0.483-1.569-0.203-2.256l-1.621-1.621l-2.322,2.324l1.441,1.441c0.373,0.373,0.781,0.271,1.373-0.152
		l0.289,0.289l-1.916,1.916L314.862,297.644z"/>
	<path d="M322.669,305.449c0.424-0.594,0.525-1,0.152-1.373l-1.441-1.442l-1.883,1.883c-0.458,0.458-0.322,0.831,0.28,1.434
		l0.849,0.849c0.746,0.746,1.135,0.645,2.568,0.296l0.238,0.237l-1.781,1.273l-4.8-4.801l0.331-0.33
		c0.584,0.551,0.967,0.762,1.483,0.245l4.054-4.054c0.518-0.518,0.305-0.898-0.246-1.484l0.331-0.33l4.757,4.758l-1.416,1.416
		l-0.229-0.229c0.434-1.043,0.483-1.569-0.203-2.256l-1.621-1.621l-2.322,2.324l1.441,1.441c0.373,0.373,0.779,0.271,1.373-0.152
		l0.289,0.289l-1.917,1.916L322.669,305.449z"/>
	<path d="M335.683,310.729l-1.637,1.907l-0.271-0.271c0.662-1.661,0.798-1.983,0.025-2.756l-0.645-0.645l-4.621,4.623
		c-0.518,0.517-0.271,0.933,0.279,1.518l-0.331,0.33l-2.612-2.611l0.331-0.331c0.585,0.552,0.992,0.788,1.509,0.271l4.623-4.621
		l-0.627-0.627c-0.772-0.772-1.095-0.637-2.766,0.017l-0.264-0.263l1.9-1.646L335.683,310.729z"/>
</g>
<g>
	<path d="M392.798,59.008h-2.948l-0.44,1.09c-0.06,0.149-0.109,0.289-0.109,0.399c0,0.31,0.25,0.42,0.939,0.44v0.389H388v-0.389
		c0.271-0.041,0.5-0.101,0.609-0.371l2.369-5.686l-0.31-0.66h1.109l2.748,6.346c0.11,0.271,0.31,0.33,0.6,0.371v0.389h-2.679v-0.389
		c0.69-0.021,0.93-0.121,0.93-0.43c0-0.121-0.05-0.25-0.109-0.4L392.798,59.008z M390.029,58.568h2.588l-1.318-3.129L390.029,58.568
		z"/>
	<path d="M399.039,55.33c-0.399-0.47-0.53-0.619-1.02-0.63v-0.39h1.709l4.158,5.268V55.43c0-0.609-0.351-0.709-1.02-0.729v-0.39
		h2.618v0.39c-0.67,0.021-1.02,0.12-1.02,0.729v5.896h-0.409l-4.438-5.547v4.428c0,0.609,0.351,0.71,1.02,0.73v0.389h-2.618v-0.389
		c0.67-0.021,1.02-0.121,1.02-0.73V55.33z"/>
	<path d="M412.167,54.211c1.05,0,1.749,0.27,2.209,0.629v1.529h-0.36c-0.27-1.159-0.989-1.648-1.908-1.648
		c-1.609,0-2.369,1.339-2.369,2.968c0,1.819,0.819,3.229,2.438,3.229c0.63,0,1.02-0.11,1.38-0.44v-1.398
		c0-0.6-0.34-0.699-0.979-0.73v-0.379h2.809v0.379c-0.63,0.031-0.9,0.131-0.9,0.73v1.629c-0.64,0.449-1.429,0.72-2.398,0.72
		c-2.108,0-3.418-1.429-3.418-3.458C408.669,55.63,410.238,54.211,412.167,54.211z"/>
	<path d="M422.826,58.868c-0.1-0.6-0.279-0.899-0.72-0.899h-1.699v2.219c0,0.539,0.3,0.68,1.01,0.68h0.999
		c0.88,0,1.05-0.29,1.689-1.34h0.28l-0.3,1.799h-5.657v-0.389c0.67-0.021,1.02-0.121,1.02-0.73V55.43c0-0.609-0.35-0.709-1.02-0.729
		v-0.39h5.606v1.669h-0.27c-0.359-0.87-0.64-1.209-1.449-1.209h-1.909v2.738h1.699c0.44,0,0.62-0.3,0.72-0.899h0.34v2.259H422.826z"
		/>
	<path d="M429.618,60.188c0,0.539,0.3,0.68,1.009,0.68h0.58c0.88,0,1.1-0.45,1.659-1.489h0.319l-0.319,1.948h-5.237v-0.389
		c0.67-0.021,1.02-0.121,1.02-0.73V55.43c0-0.609-0.35-0.709-1.02-0.729v-0.39h2.998v0.39c-0.649,0.021-1.009,0.12-1.009,0.729
		V60.188z"/>
	<path d="M399.352,69.311l0.16,2.089h-0.32c-0.589-1.369-0.699-1.64-1.608-1.64h-0.76v5.447c0,0.609,0.39,0.71,1.06,0.73v0.389
		h-3.079v-0.389c0.67-0.021,1.05-0.121,1.05-0.73V69.76h-0.739c-0.91,0-1.02,0.271-1.619,1.64h-0.31l0.149-2.089H399.352z"/>
	<path d="M404.435,73.868c0,1.249,0.689,1.929,1.828,1.929c1.35,0,2.089-0.57,2.089-2.009V70.43c0-0.609-0.359-0.709-1.02-0.729
		v-0.39h2.609v0.39c-0.66,0.021-1.01,0.12-1.01,0.729v3.549c0,1.658-1.26,2.438-2.688,2.438c-1.679,0-2.778-0.77-2.778-2.458V70.43
		c0-0.609-0.36-0.709-1.02-0.729v-0.39h2.998v0.39c-0.659,0.021-1.009,0.12-1.009,0.729V73.868z"/>
	<path d="M412.865,75.938c0.67-0.021,1.02-0.121,1.02-0.73V70.43c0-0.609-0.35-0.709-1.02-0.729v-0.39h3.048
		c1.55,0,2.429,0.59,2.429,1.759c0,1.01-0.839,1.47-1.749,1.63c1.359,0.109,2.109,0.749,2.109,1.748
		c0,1.119-0.939,1.879-2.579,1.879h-3.258V75.938z M414.844,69.771v2.748h0.78c1.139,0,1.669-0.45,1.669-1.449
		c0-0.689-0.5-1.299-1.669-1.299H414.844z M414.844,72.969v2.238c0,0.54,0.3,0.67,1.01,0.67h0.13c1.149,0,1.659-0.46,1.659-1.43
		c0-0.819-0.489-1.479-1.799-1.479H414.844z"/>
	<path d="M426.383,73.868c-0.1-0.6-0.279-0.899-0.72-0.899h-1.699v2.219c0,0.539,0.3,0.68,1.01,0.68h0.999
		c0.88,0,1.05-0.29,1.689-1.34h0.28l-0.3,1.799h-5.657v-0.389c0.67-0.021,1.02-0.121,1.02-0.73V70.43c0-0.609-0.35-0.709-1.02-0.729
		v-0.39h5.606v1.669h-0.27c-0.359-0.87-0.64-1.209-1.449-1.209h-1.909v2.738h1.699c0.44,0,0.62-0.3,0.72-0.899h0.34v2.259H426.383z"
		/>
</g>
<g>
	<path d="M24.284,288v-0.389c0.67-0.021,1.02-0.121,1.02-0.73v-4.777c0-0.609-0.35-0.709-1.02-0.729v-0.39h5.427v1.729h-0.26
		c-0.37-0.869-0.649-1.269-1.449-1.269h-1.739v2.888h1.52c0.439,0,0.62-0.299,0.729-0.898h0.33v2.258h-0.33
		c-0.109-0.6-0.29-0.898-0.729-0.898h-1.52v2.088c0,0.609,0.49,0.689,1.29,0.73V288H24.284z"/>
	<path d="M37.062,285.682h-2.948l-0.44,1.09c-0.06,0.149-0.109,0.289-0.109,0.399c0,0.31,0.25,0.42,0.939,0.44V288h-2.239v-0.389
		c0.271-0.041,0.5-0.101,0.609-0.371l2.369-5.686l-0.31-0.66h1.109l2.748,6.346c0.11,0.271,0.31,0.33,0.6,0.371V288h-2.679v-0.389
		c0.69-0.021,0.93-0.121,0.93-0.43c0-0.121-0.05-0.25-0.109-0.4L37.062,285.682z M34.294,285.242h2.588l-1.318-3.129L34.294,285.242
		z"/>
	<path d="M45.223,280.984c1.779,0,2.559,0.81,2.559,1.969c0,1.129-0.979,1.77-1.929,1.859l1.679,2.088
		c0.32,0.4,0.75,0.68,1.289,0.711V288h-1.429c-0.37-0.229-0.58-0.449-0.91-0.879l-1.688-2.179h-0.53v1.938
		c0,0.609,0.36,0.71,1.01,0.73V288h-2.988v-0.389c0.67-0.021,1.02-0.121,1.02-0.73v-4.777c0-0.609-0.35-0.709-1.02-0.729v-0.39
		H45.223z M44.263,281.444v3.058h0.7c1.189,0,1.759-0.52,1.759-1.549c0-0.85-0.529-1.509-1.799-1.509H44.263z"/>
	<path d="M54.763,280.984c1.779,0,2.559,0.81,2.559,1.969c0,1.129-0.979,1.77-1.929,1.859l1.679,2.088
		c0.32,0.4,0.75,0.68,1.289,0.711V288h-1.429c-0.37-0.229-0.58-0.449-0.91-0.879l-1.688-2.179h-0.53v1.938
		c0,0.609,0.36,0.71,1.01,0.73V288h-2.988v-0.389c0.67-0.021,1.02-0.121,1.02-0.73v-4.777c0-0.609-0.35-0.709-1.02-0.729v-0.39
		H54.763z M53.803,281.444v3.058h0.7c1.189,0,1.759-0.52,1.759-1.549c0-0.85-0.529-1.509-1.799-1.509H53.803z"/>
	<path d="M61.364,288v-0.389c0.67-0.021,1.02-0.121,1.02-0.73v-4.777c0-0.609-0.35-0.709-1.02-0.729v-0.39h2.998v0.39
		c-0.669,0.021-1.02,0.12-1.02,0.729v4.777c0,0.609,0.351,0.71,1.02,0.73V288H61.364z"/>
	<path d="M68.563,282.004c-0.399-0.47-0.53-0.619-1.02-0.63v-0.39h1.709l4.158,5.268v-4.148c0-0.609-0.351-0.709-1.02-0.729v-0.39
		h2.618v0.39c-0.67,0.021-1.02,0.12-1.02,0.729V288h-0.409l-4.438-5.547v4.428c0,0.609,0.351,0.71,1.02,0.73V288h-2.618v-0.389
		c0.67-0.021,1.02-0.121,1.02-0.73V282.004z"/>
	<path d="M81.691,280.885c1.05,0,1.749,0.27,2.209,0.629v1.529h-0.36c-0.27-1.159-0.989-1.648-1.908-1.648
		c-1.609,0-2.369,1.339-2.369,2.968c0,1.819,0.819,3.229,2.438,3.229c0.63,0,1.02-0.11,1.38-0.44v-1.398
		c0-0.6-0.34-0.699-0.979-0.73v-0.379h2.809v0.379c-0.63,0.031-0.9,0.131-0.9,0.73v1.629c-0.64,0.449-1.429,0.72-2.398,0.72
		c-2.108,0-3.418-1.429-3.418-3.458C78.193,282.304,79.763,280.885,81.691,280.885z"/>
	<path d="M87.953,280.984h3.068c2.599,0,3.708,1.569,3.708,3.309c0,2.408-1.6,3.707-3.559,3.707h-3.218v-0.389
		c0.67-0.021,1.02-0.121,1.02-0.73v-4.777c0-0.609-0.35-0.709-1.02-0.729V280.984z M89.932,281.444v5.387
		c0,0.59,0.32,0.71,1.02,0.71h0.22c1.54,0,2.489-1.06,2.489-3.029c0-1.559-0.77-3.067-2.829-3.067H89.932z"/>
	<path d="M104.909,284.353c0,2.288-1.519,3.748-3.338,3.748c-2.069,0-3.278-1.609-3.278-3.468c0-2.289,1.52-3.748,3.338-3.748
		C103.7,280.885,104.909,282.494,104.909,284.353z M103.84,284.522c0-1.529-0.689-3.089-2.349-3.089
		c-1.419,0-2.129,1.32-2.129,3.029c0,1.529,0.689,3.088,2.349,3.088C103.131,287.551,103.84,286.231,103.84,284.522z"/>
	<path d="M109.201,282.004c-0.4-0.47-0.53-0.619-1.02-0.63v-0.39h1.709l4.158,5.268v-4.148c0-0.609-0.351-0.709-1.02-0.729v-0.39
		h2.618v0.39c-0.67,0.021-1.02,0.12-1.02,0.729V288h-0.409l-4.438-5.547v4.428c0,0.609,0.351,0.71,1.02,0.73V288h-2.618v-0.389
		c0.67-0.021,1.02-0.121,1.02-0.73V282.004z"/>
	<path d="M58.585,295.984l0.16,2.089h-0.32c-0.589-1.369-0.699-1.64-1.608-1.64h-0.76v5.447c0,0.609,0.39,0.71,1.06,0.73V303h-3.079
		v-0.389c0.67-0.021,1.05-0.121,1.05-0.73v-5.447h-0.739c-0.91,0-1.02,0.271-1.619,1.64h-0.31l0.149-2.089H58.585z"/>
	<path d="M63.668,300.542c0,1.249,0.689,1.929,1.828,1.929c1.35,0,2.089-0.57,2.089-2.009v-3.358c0-0.609-0.359-0.709-1.02-0.729
		v-0.39h2.609v0.39c-0.66,0.021-1.01,0.12-1.01,0.729v3.549c0,1.658-1.26,2.438-2.688,2.438c-1.679,0-2.778-0.77-2.778-2.458v-3.528
		c0-0.609-0.36-0.709-1.02-0.729v-0.39h2.998v0.39c-0.659,0.021-1.009,0.12-1.009,0.729V300.542z"/>
	<path d="M72.099,302.611c0.67-0.021,1.02-0.121,1.02-0.73v-4.777c0-0.609-0.35-0.709-1.02-0.729v-0.39h3.048
		c1.55,0,2.429,0.59,2.429,1.759c0,1.01-0.839,1.47-1.749,1.63c1.359,0.109,2.109,0.749,2.109,1.748
		c0,1.119-0.939,1.879-2.579,1.879h-3.258V302.611z M74.077,296.444v2.748h0.78c1.139,0,1.669-0.45,1.669-1.449
		c0-0.689-0.5-1.299-1.669-1.299H74.077z M74.077,299.643v2.238c0,0.54,0.3,0.67,1.01,0.67h0.13c1.149,0,1.659-0.46,1.659-1.43
		c0-0.819-0.489-1.479-1.799-1.479H74.077z"/>
	<path d="M85.616,300.542c-0.1-0.6-0.279-0.899-0.72-0.899h-1.699v2.219c0,0.539,0.3,0.68,1.01,0.68h0.999
		c0.88,0,1.05-0.29,1.689-1.34h0.28l-0.3,1.799h-5.657v-0.389c0.67-0.021,1.02-0.121,1.02-0.73v-4.777
		c0-0.609-0.35-0.709-1.02-0.729v-0.39h5.606v1.669h-0.27c-0.359-0.87-0.64-1.209-1.449-1.209h-1.909v2.738h1.699
		c0.44,0,0.62-0.3,0.72-0.899h0.34v2.259H85.616z"/>
</g>
<g>
	<path d="M159.869,115.104l-2.502,2.502l0.551,1.299c0.076,0.178,0.153,0.339,0.246,0.432c0.264,0.264,0.568,0.145,1.17-0.424
		l0.331,0.331l-1.899,1.899l-0.33-0.33c0.195-0.264,0.338-0.51,0.203-0.832l-2.816-6.836L154,112.849l0.941-0.941l7.718,3.054
		c0.322,0.136,0.544,0.017,0.823-0.194l0.33,0.33l-2.272,2.272l-0.331-0.331c0.568-0.602,0.688-0.891,0.424-1.152
		c-0.102-0.102-0.254-0.17-0.432-0.246L159.869,115.104z M157.147,117.081l2.196-2.195l-3.774-1.536L157.147,117.081z"/>
	<path d="M165.225,103.864c-0.076-0.178-0.145-0.33-0.246-0.432c-0.264-0.264-0.561-0.152-1.17,0.424l-0.331-0.331l1.925-1.925
		l0.33,0.33c-0.212,0.28-0.33,0.5-0.203,0.832l3.139,7.631l-0.256,0.256l-7.818-2.951c-0.33-0.127-0.561,0-0.832,0.203l-0.33-0.33
		l2.266-2.266l0.33,0.331c-0.568,0.603-0.688,0.892-0.424,1.153c0.102,0.102,0.236,0.17,0.432,0.247l5.471,2.11L165.225,103.864z"/>
	<path d="M175.456,99.281c-0.594-0.424-1.001-0.526-1.374-0.153l-1.441,1.441l1.883,1.883c0.457,0.459,0.83,0.322,1.434-0.279
		l0.848-0.848c0.746-0.747,0.645-1.137,0.297-2.57l0.236-0.236l1.273,1.779l-4.801,4.801l-0.33-0.331
		c0.551-0.585,0.762-0.966,0.245-1.483l-4.054-4.054c-0.518-0.517-0.898-0.306-1.483,0.245l-0.331-0.33l4.758-4.758l1.416,1.416
		l-0.229,0.229c-1.043-0.432-1.568-0.482-2.256,0.205l-1.62,1.619l2.323,2.323l1.441-1.442c0.373-0.372,0.271-0.779-0.152-1.373
		l0.289-0.288l1.916,1.917L175.456,99.281z"/>
	<path d="M177.395,91.339c-0.738-0.06-0.977-0.076-1.4,0.33l-0.33-0.33l1.45-1.45l7.997,0.94l-3.52-3.52
		c-0.517-0.517-0.898-0.305-1.484,0.246l-0.33-0.33l2.222-2.222l0.331,0.331c-0.551,0.584-0.764,0.967-0.246,1.484l5.003,5.003
		l-0.348,0.348l-8.472-0.941l3.757,3.757c0.517,0.518,0.898,0.306,1.483-0.246l0.331,0.331l-2.222,2.222l-0.33-0.33
		c0.551-0.586,0.762-0.967,0.245-1.484L177.395,91.339z"/>
	<path d="M189.959,84.778c1.06,1.061,2.222,1.052,3.188,0.085c1.146-1.146,1.288-2.255,0.067-3.477l-2.85-2.85
		c-0.518-0.517-0.907-0.297-1.483,0.245l-0.331-0.33l2.213-2.213l0.331,0.33c-0.542,0.576-0.754,0.958-0.237,1.475l3.012,3.012
		c1.407,1.407,0.999,3.138-0.213,4.35c-1.426,1.426-3.011,1.705-4.443,0.271l-2.994-2.993c-0.518-0.517-0.907-0.297-1.484,0.246
		l-0.33-0.331l2.544-2.544l0.331,0.331c-0.543,0.576-0.756,0.959-0.238,1.476L189.959,84.778z"/>
	<path d="M200.844,73.894c-0.594-0.424-1.001-0.526-1.373-0.154l-1.442,1.442l1.883,1.883c0.458,0.458,0.831,0.321,1.434-0.28
		l0.849-0.848c0.746-0.746,0.644-1.136,0.296-2.569l0.237-0.237l1.272,1.78l-4.8,4.8l-0.33-0.33c0.55-0.585,0.762-0.967,0.244-1.484
		l-4.053-4.053c-0.518-0.518-0.899-0.306-1.484,0.244l-0.33-0.33L198.003,69l1.416,1.416l-0.229,0.229
		c-1.043-0.433-1.568-0.483-2.255,0.204l-1.621,1.619l2.324,2.324l1.441-1.442c0.373-0.372,0.271-0.78-0.152-1.373l0.289-0.288
		l1.916,1.916L200.844,73.894z"/>
</g>
<g>
	<path d="M49.536,166.953l0.331-0.331c0.584,0.551,0.966,0.763,1.482,0.246l4.055-4.055c0.517-0.517,0.305-0.898-0.246-1.482
		L55.489,161l4.604,4.604l-1.467,1.467l-0.221-0.221c0.425-1.051,0.525-1.627-0.152-2.307l-1.477-1.475l-2.45,2.45l1.289,1.289
		c0.373,0.373,0.78,0.271,1.383-0.144l0.279,0.279l-1.917,1.916l-0.279-0.279c0.415-0.603,0.518-1.01,0.145-1.383l-1.289-1.289
		l-1.773,1.773c-0.517,0.517-0.17,1,0.476,1.713l-0.331,0.33L49.536,166.953z"/>
	<path d="M62.346,175.827l-2.502-2.502l-1.298,0.552c-0.179,0.075-0.339,0.153-0.433,0.245c-0.263,0.264-0.145,0.568,0.424,1.171
		l-0.33,0.331l-1.9-1.9l0.33-0.33c0.264,0.195,0.51,0.338,0.832,0.203l6.836-2.816l0.297-0.821l0.941,0.94l-3.054,7.718
		c-0.136,0.322-0.017,0.544,0.194,0.823l-0.33,0.33l-2.272-2.272l0.331-0.331c0.602,0.568,0.891,0.688,1.152,0.424
		c0.102-0.102,0.17-0.254,0.246-0.432L62.346,175.827z M60.369,173.105l2.195,2.196l1.536-3.774L60.369,173.105z"/>
	<path d="M73.256,178.767c1.509,1.509,1.483,2.857,0.5,3.841c-0.958,0.958-2.332,0.671-3.215-0.06l-0.348,3.197
		c-0.067,0.611,0.061,1.213,0.492,1.696l-0.33,0.331l-1.213-1.213c-0.119-0.508-0.11-0.873-0.025-1.518l0.415-3.282l-0.45-0.45
		l-1.645,1.646c-0.518,0.517-0.297,0.907,0.238,1.476l-0.331,0.331l-2.536-2.536l0.331-0.33c0.585,0.551,0.967,0.763,1.483,0.246
		l4.055-4.055c0.517-0.517,0.305-0.898-0.246-1.483l0.33-0.331L73.256,178.767z M72.051,178.342l-2.595,2.595l0.595,0.594
		c1.008,1.01,1.933,1.052,2.807,0.178c0.721-0.721,0.83-1.729-0.246-2.807L72.051,178.342z"/>
	<path d="M81.351,186.861c1.509,1.509,1.483,2.858,0.501,3.841c-0.959,0.959-2.332,0.671-3.215-0.059l-0.348,3.197
		c-0.068,0.611,0.06,1.212,0.492,1.696l-0.33,0.331l-1.213-1.213c-0.119-0.51-0.111-0.873-0.025-1.518l0.414-3.283l-0.449-0.449
		l-1.645,1.645c-0.518,0.518-0.297,0.908,0.237,1.477l-0.331,0.33l-2.535-2.535l0.33-0.33c0.586,0.551,0.967,0.762,1.484,0.245
		l4.054-4.054c0.517-0.518,0.306-0.898-0.245-1.484l0.33-0.33L81.351,186.861z M80.146,186.437l-2.596,2.596l0.595,0.594
		c1.009,1.009,1.933,1.051,2.807,0.178c0.721-0.721,0.831-1.729-0.246-2.807L80.146,186.437z"/>
	<path d="M81,198.417l0.33-0.331c0.585,0.551,0.967,0.763,1.484,0.245l4.053-4.053c0.518-0.518,0.306-0.899-0.245-1.484l0.331-0.33
		l2.543,2.543l-0.33,0.331c-0.586-0.552-0.967-0.763-1.484-0.246l-4.054,4.054c-0.517,0.518-0.306,0.898,0.246,1.484l-0.331,0.33
		L81,198.417z"/>
	<path d="M92.195,199.437c0.061-0.737,0.077-0.975-0.329-1.398l0.331-0.33l1.449,1.449l-0.941,7.998l3.52-3.52
		c0.518-0.518,0.306-0.899-0.246-1.484l0.331-0.331l2.222,2.222l-0.33,0.331c-0.586-0.552-0.967-0.763-1.484-0.246l-5.004,5.003
		l-0.348-0.348l0.941-8.471l-3.756,3.756c-0.518,0.518-0.307,0.898,0.244,1.484l-0.33,0.33l-2.221-2.221l0.33-0.331
		c0.584,0.55,0.967,0.763,1.483,0.245L92.195,199.437z"/>
	<path d="M104.287,209.628c0.89,0.89,1.254,1.713,1.34,2.408l-1.298,1.297l-0.306-0.305c0.755-1.213,0.56-2.239-0.221-3.02
		c-1.365-1.365-3.146-0.873-4.528,0.509c-1.544,1.544-2.044,3.435-0.67,4.809c0.534,0.534,0.958,0.771,1.544,0.798l1.188-1.188
		c0.508-0.51,0.305-0.883-0.213-1.451l0.322-0.322l2.383,2.383l-0.322,0.322c-0.56-0.509-0.873-0.652-1.382-0.144l-1.382,1.382
		c-0.925-0.16-1.824-0.602-2.646-1.424c-1.789-1.789-1.688-4.113,0.033-5.836C100.113,207.862,102.649,207.99,104.287,209.628z"/>
	<path d="M109.516,215.026l2.604,2.604c2.205,2.205,1.814,4.477,0.339,5.952c-2.044,2.044-4.503,1.79-6.165,0.128l-2.73-2.73
		l0.33-0.331c0.585,0.551,0.967,0.763,1.484,0.245l4.053-4.053c0.518-0.518,0.306-0.899-0.245-1.484L109.516,215.026z
		 M110.804,217.095l-4.571,4.57c-0.5,0.501-0.33,0.874,0.264,1.468l0.187,0.187c1.306,1.307,3.011,1.213,4.681-0.457
		c1.324-1.324,1.951-3.256,0.205-5.004L110.804,217.095z"/>
	<path d="M121.045,232.271c-1.941,1.942-4.469,1.892-6.013,0.348c-1.755-1.755-1.417-4.147,0.161-5.725
		c1.941-1.942,4.469-1.892,6.013-0.348C122.961,228.302,122.623,230.694,121.045,232.271z M119.993,231.508
		c1.298-1.298,2.036-3.205,0.628-4.613c-1.204-1.204-2.926-0.687-4.377,0.763c-1.297,1.298-2.034,3.207-0.627,4.614
		C116.821,233.476,118.543,232.958,119.993,231.508z"/>
	<path d="M126.68,233.921c0.061-0.738,0.076-0.975-0.33-1.398l0.331-0.331l1.45,1.45l-0.941,7.997l3.52-3.52
		c0.518-0.517,0.305-0.899-0.246-1.484l0.33-0.331l2.223,2.223l-0.33,0.33c-0.586-0.551-0.968-0.763-1.484-0.246l-5.004,5.004
		l-0.348-0.348l0.941-8.472l-3.757,3.757c-0.517,0.518-0.306,0.898,0.245,1.484l-0.33,0.33l-2.222-2.222l0.331-0.331
		c0.584,0.551,0.967,0.764,1.483,0.246L126.68,233.921z"/>
	<path d="M142.164,247.675c1.51,1.51,1.484,2.858,0.501,3.842c-0.958,0.958-2.331,0.67-3.214-0.059l-0.348,3.197
		c-0.068,0.61,0.06,1.212,0.492,1.696l-0.33,0.331l-1.214-1.214c-0.118-0.509-0.11-0.873-0.025-1.518l0.415-3.282l-0.449-0.449
		l-1.645,1.645c-0.518,0.518-0.297,0.908,0.237,1.477l-0.331,0.33l-2.535-2.535l0.33-0.33c0.585,0.55,0.967,0.762,1.484,0.244
		l4.053-4.053c0.518-0.518,0.306-0.899-0.244-1.484l0.33-0.33L142.164,247.675z M140.961,247.251l-2.596,2.596l0.594,0.594
		c1.01,1.008,1.934,1.051,2.807,0.178c0.721-0.721,0.832-1.729-0.245-2.807L140.961,247.251z"/>
	<path d="M150.473,261.698c-1.942,1.942-4.469,1.893-6.014,0.348c-1.755-1.755-1.416-4.146,0.162-5.725
		c1.941-1.941,4.469-1.891,6.012-0.348C152.389,257.729,152.05,260.121,150.473,261.698z M149.42,260.935
		c1.298-1.297,2.037-3.205,0.629-4.613c-1.205-1.203-2.927-0.687-4.377,0.764c-1.297,1.297-2.035,3.207-0.627,4.613
		C146.248,262.903,147.971,262.386,149.42,260.935z"/>
	<path d="M155.818,269.3l-2.501-2.501l-1.298,0.552c-0.178,0.076-0.34,0.152-0.432,0.246c-0.264,0.263-0.145,0.568,0.423,1.17
		l-0.331,0.33l-1.898-1.898l0.33-0.331c0.263,0.195,0.509,0.339,0.832,0.204l6.835-2.816l0.297-0.822l0.941,0.941l-3.054,7.717
		c-0.135,0.322-0.018,0.543,0.195,0.823l-0.33,0.331l-2.273-2.273l0.331-0.33c0.603,0.568,0.891,0.687,1.153,0.424
		c0.102-0.102,0.169-0.255,0.246-0.433L155.818,269.3z M153.844,266.579l2.195,2.196l1.535-3.774L153.844,266.579z"/>
	<path d="M164.236,269.747l2.604,2.604c2.205,2.205,1.814,4.477,0.34,5.953c-2.045,2.043-4.504,1.789-6.166,0.127l-2.73-2.73
		l0.33-0.33c0.585,0.55,0.967,0.762,1.484,0.244l4.053-4.053c0.518-0.518,0.306-0.899-0.244-1.484L164.236,269.747z
		 M165.525,271.815l-4.571,4.571c-0.501,0.501-0.331,0.874,0.263,1.468l0.188,0.186c1.305,1.307,3.01,1.213,4.68-0.457
		c1.324-1.324,1.951-3.256,0.205-5.004L165.525,271.815z"/>
</g>
<path fill="#1E1E1C" d="M412.038,31.771c0,0,0.089,0.184,0.517,0.655c0.432,0.477,2.498,2.585,2.498,2.585l0,0h0.002l0.133-0.168
	v-0.136c0,0-2.757-2.836-3.149-4.471v-11.07c0.004,0.006,0.618,0.936,1.467,1.783c0.852,0.851,1.548,1.231,1.548,1.231l0.123-0.136
	l-0.011-0.261c-0.195-0.203-0.539-0.621-0.842-1.146c-0.499-0.868-0.822-1.764-1.043-2.438c-0.809-2.446-1.117-5.559-1.209-6.726
	c-0.009-0.092-0.014-0.173-0.019-0.239l-0.015-0.014l0,0L411.816,11h-0.253l-0.221,0.222l0,0l-0.015,0.014
	c-0.005,0.066-0.012,0.147-0.019,0.239c-0.092,1.167-0.4,4.279-1.209,6.726c-0.223,0.675-0.544,1.57-1.045,2.438
	c-0.301,0.524-0.646,0.942-0.84,1.146l-0.011,0.261l0.121,0.136c0,0,0.698-0.381,1.55-1.231c0.848-0.848,1.463-1.777,1.467-1.783
	v11.073c-0.396,1.634-3.149,4.468-3.149,4.468v0.136l0.133,0.168c0,0,2.068-2.108,2.5-2.585c0.427-0.472,0.515-0.653,0.517-0.655
	v1.577c-0.396,1.634-3.149,4.468-3.149,4.468v0.136l0.133,0.168c0,0,2.068-2.107,2.5-2.584c0.427-0.473,0.515-0.653,0.517-0.657
	v1.576c-0.396,1.635-3.149,4.469-3.149,4.469v0.136l0.133,0.168c0,0,2.068-2.107,2.5-2.584c0.427-0.472,0.515-0.654,0.517-0.656
	v1.577c-0.396,1.633-3.149,4.467-3.149,4.467v0.137l0.133,0.167c0,0,2.068-2.108,2.5-2.585c0.431-0.476,0.517-0.657,0.517-0.657
	l0.348-0.401l0.348,0.401c0,0,0.086,0.182,0.517,0.657c0.432,0.477,2.5,2.585,2.5,2.585l0.133-0.167V44.03
	c0,0-2.757-2.836-3.149-4.471v-0.763v-0.812c0,0,0.086,0.182,0.517,0.658c0.432,0.477,2.5,2.584,2.5,2.584l0.133-0.168v-0.136
	c0,0-2.757-2.836-3.149-4.47v-0.765v-0.811c0,0,0.086,0.181,0.517,0.657c0.432,0.477,2.5,2.584,2.5,2.584l0.133-0.168v-0.136
	c0,0-2.757-2.836-3.149-4.47v-0.765V31.771z"/>
<path fill="#1E1E1C" d="M98.319,319.469c-0.001-0.001-0.192-0.066-0.829-0.099c-0.643-0.031-3.594-0.061-3.594-0.061l0,0
	l-0.001,0.001l0.024,0.213l0.096,0.096c0,0,3.955,0.056,5.388,0.934l7.828,7.828c-0.007-0.001-1.099-0.225-2.298-0.224
	c-1.203,0.001-1.965,0.225-1.965,0.225l0.009,0.183l0.192,0.177c0.281,0.006,0.82,0.058,1.404,0.214
	c0.968,0.262,1.829,0.666,2.463,0.988c2.301,1.157,4.721,3.141,5.609,3.899c0.071,0.059,0.133,0.113,0.184,0.157l0.02-0.001l0,0
	l0.312-0.001l0.18-0.179v-0.312l0,0v-0.021c-0.043-0.05-0.097-0.113-0.156-0.183c-0.76-0.89-2.743-3.31-3.9-5.61
	c-0.32-0.635-0.726-1.495-0.986-2.464c-0.157-0.582-0.208-1.123-0.215-1.402l-0.178-0.193l-0.181-0.01c0,0-0.225,0.764-0.226,1.967
	c0,1.198,0.222,2.291,0.224,2.298l-7.829-7.829c-0.877-1.437-0.934-5.388-0.934-5.388l-0.096-0.095l-0.212-0.025
	c0,0,0.027,2.953,0.06,3.596c0.032,0.636,0.099,0.826,0.099,0.829l-1.116-1.116c-0.875-1.435-0.932-5.386-0.932-5.386l-0.097-0.097
	l-0.213-0.024c0,0,0.028,2.952,0.06,3.595c0.032,0.636,0.099,0.826,0.101,0.831l-1.114-1.114c-0.877-1.437-0.934-5.388-0.934-5.388
	l-0.097-0.097l-0.213-0.024c0,0,0.028,2.952,0.06,3.595c0.032,0.636,0.099,0.826,0.099,0.829l-1.114-1.114
	c-0.875-1.435-0.932-5.386-0.932-5.386l-0.097-0.097l-0.213-0.024c0,0,0.029,2.954,0.062,3.597c0.03,0.64,0.099,0.829,0.099,0.829
	l0.038,0.53l-0.53-0.039c0,0-0.189-0.067-0.829-0.099c-0.643-0.032-3.597-0.061-3.597-0.061l0.025,0.212l0.097,0.098
	c0,0,3.954,0.056,5.388,0.934l0.539,0.539l0.574,0.574c0,0-0.188-0.067-0.83-0.1c-0.643-0.032-3.596-0.06-3.596-0.06l0.025,0.212
	l0.097,0.098c0,0,3.954,0.056,5.387,0.933l0.541,0.541l0.573,0.573c0,0-0.188-0.067-0.83-0.1c-0.643-0.032-3.596-0.06-3.596-0.06
	l0.025,0.213l0.097,0.097c0,0,3.955,0.056,5.387,0.933l0.541,0.541L98.319,319.469z"/>
<g>
	<path d="M144.356,224.475c0-2.135,0.971-3.07,2.362-3.07c1.355,0,2.123,1.175,2.23,2.314l2.507-2.015
		c0.479-0.384,0.815-0.899,0.852-1.547h0.468v1.715c-0.275,0.443-0.54,0.695-1.056,1.091l-2.614,2.027v0.636h2.326
		c0.732,0,0.852-0.432,0.876-1.212h0.468V228h-0.468c-0.024-0.803-0.144-1.223-0.876-1.223h-5.732c-0.731,0-0.852,0.42-0.875,1.223
		h-0.468V224.475z M144.908,225.626h3.67v-0.84c0-1.427-0.624-2.11-1.859-2.11c-1.02,0-1.811,0.635-1.811,2.158V225.626z"/>
	<path d="M148.397,208.685c2.747,0,4.498,1.822,4.498,4.006c0,2.482-1.931,3.934-4.162,3.934c-2.746,0-4.497-1.823-4.497-4.006
		C144.236,210.136,146.167,208.685,148.397,208.685z M148.602,209.968c-1.835,0-3.706,0.827-3.706,2.818
		c0,1.703,1.583,2.555,3.634,2.555c1.835,0,3.706-0.828,3.706-2.818C152.235,210.819,150.652,209.968,148.602,209.968z"/>
	<path d="M152.067,204.421l-1.967,0.084v-0.42c1.26-0.36,2.195-1.092,2.195-2.314c0-1.128-0.552-1.812-1.535-1.812
		c-0.828,0-1.212,0.54-1.751,1.991c-0.588,1.595-1.164,2.459-2.519,2.459c-1.271,0-2.255-0.948-2.255-2.627
		c0-0.972,0.323-1.847,0.755-2.495h1.835v0.396c-1.163,0.275-1.99,0.995-1.99,2.158c0,1.008,0.575,1.523,1.343,1.523
		c0.815,0,1.188-0.408,1.739-1.895c0.647-1.764,1.271-2.603,2.603-2.603c1.535,0,2.375,1.343,2.375,2.938
		C152.896,202.934,152.512,203.893,152.067,204.421z"/>
	<path d="M149.825,189.628c-0.72,0.119-1.079,0.336-1.079,0.863v2.039h2.662c0.647,0,0.815-0.36,0.815-1.212v-1.199
		c0-1.056-0.348-1.259-1.607-2.026v-0.336l2.159,0.359v6.788h-0.468c-0.024-0.803-0.144-1.223-0.876-1.223h-5.732
		c-0.731,0-0.852,0.42-0.875,1.223h-0.468v-6.728h2.003v0.323c-1.044,0.432-1.451,0.768-1.451,1.739v2.291h3.286v-2.039
		c0-0.527-0.36-0.744-1.08-0.863v-0.408h2.711V189.628z"/>
	<path d="M152.308,183.864c-0.024-0.803-0.144-1.223-0.876-1.223h-5.732c-0.731,0-0.852,0.42-0.875,1.223h-0.468v-3.657
		c0-1.859,0.707-2.915,2.11-2.915c1.211,0,1.763,1.008,1.955,2.1c0.132-1.632,0.899-2.531,2.099-2.531
		c1.344,0,2.255,1.128,2.255,3.095v3.909H152.308z M144.908,181.49h3.298v-0.936c0-1.367-0.54-2.003-1.739-2.003
		c-0.827,0-1.559,0.6-1.559,2.003V181.49z M148.746,181.49h2.686c0.648,0,0.804-0.36,0.804-1.212v-0.155
		c0-1.38-0.552-1.991-1.715-1.991c-0.983,0-1.774,0.588-1.774,2.159V181.49z"/>
	<path d="M149.825,167.645c-0.72,0.12-1.079,0.336-1.079,0.863v2.039h2.662c0.647,0,0.815-0.36,0.815-1.212v-1.199
		c0-1.056-0.348-1.259-1.607-2.026v-0.336l2.159,0.359v6.788h-0.468c-0.024-0.803-0.144-1.223-0.876-1.223h-5.732
		c-0.731,0-0.852,0.42-0.875,1.223h-0.468v-6.728h2.003v0.323c-1.044,0.432-1.451,0.768-1.451,1.739v2.291h3.286v-2.039
		c0-0.527-0.36-0.743-1.08-0.863v-0.408h2.711V167.645z"/>
	<path d="M144.356,158.355c0-2.135,0.971-3.07,2.362-3.07c1.355,0,2.123,1.175,2.23,2.314l2.507-2.015
		c0.479-0.384,0.815-0.899,0.852-1.547h0.468v1.715c-0.275,0.443-0.54,0.695-1.056,1.091l-2.614,2.027v0.636h2.326
		c0.732,0,0.852-0.432,0.876-1.212h0.468v3.586h-0.468c-0.024-0.803-0.144-1.223-0.876-1.223h-5.732
		c-0.731,0-0.852,0.42-0.875,1.223h-0.468V158.355z M144.908,159.507h3.67v-0.84c0-1.427-0.624-2.11-1.859-2.11
		c-1.02,0-1.811,0.635-1.811,2.158V159.507z"/>
	<path d="M144.356,146.907c0-2.135,0.971-3.07,2.362-3.07c1.355,0,2.123,1.175,2.23,2.314l2.507-2.015
		c0.479-0.384,0.815-0.899,0.852-1.548h0.468v1.716c-0.275,0.443-0.54,0.695-1.056,1.091l-2.614,2.027v0.636h2.326
		c0.732,0,0.852-0.432,0.876-1.212h0.468v3.586h-0.468c-0.024-0.803-0.144-1.223-0.876-1.223h-5.732
		c-0.731,0-0.852,0.42-0.875,1.223h-0.468V146.907z M144.908,148.059h3.67v-0.84c0-1.427-0.624-2.11-1.859-2.11
		c-1.02,0-1.811,0.635-1.811,2.158V148.059z"/>
	<path d="M145.819,133.672c-0.204-0.119-0.36-0.203-0.552-0.203c-0.324,0-0.42,0.252-0.443,1.091h-0.468v-2.698h0.468
		c0.048,0.348,0.132,0.54,0.443,0.731l4.113,2.65h2.051c0.732,0,0.852-0.432,0.876-1.211h0.468v3.574h-0.468
		c-0.024-0.804-0.144-1.224-0.876-1.224h-2.038l-4.126,2.578c-0.312,0.192-0.396,0.396-0.443,0.732h-0.468v-3.179h0.468
		c0.023,0.827,0.119,1.092,0.443,1.092c0.191,0,0.348-0.084,0.552-0.216l2.95-1.835L145.819,133.672z"/>
</g>
<polygon fill="#FFFFC9" points="238.89,219.627 233.574,214.311 233.009,213.745 209.975,190.71 204.582,190.711 185.636,209.656 
	211.367,235.387 208.635,238.119 214.518,244 "/>
<g>
	<path fill="#1E1E1C" d="M206.956,215.604c-0.098,0.93-0.591,2.189-1.904,2.189c-0.904,0-1.638-0.718-1.638-1.926
		c0,0-0.01-0.877-0.01-1.147c0-1.029,0-2.319,0-3.346c0-0.376,0.01-0.374,0.01-0.376c0-1.211,0.733-1.928,1.638-1.928
		c1.313,0,1.807,1.257,1.904,2.189h1.565c-0.06-2.722-2.299-4.261-4.381-4.261c-2.422,0-4.391,1.964-4.391,4.388
		c0,0.741,0,3.351,0,4.088c0,2.426,1.969,4.392,4.391,4.392c2.147,0,4.276-1.583,4.386-4.263H206.956
		c-0.006,0.07-0.016,0.142-0.027,0.214L206.956,215.604z"/>
	<path fill="#1E1E1C" d="M218.614,207c-0.338,0-6.718,0-6.718,0v16.296h4.809v-6.955c0.609,0,1.485,0,1.909,0
		c2.583,0,4.674-2.089,4.674-4.671C223.288,209.093,221.197,207,218.614,207z M218.741,214.041c-0.218,0-1.263,0-2.036,0v-4.739
		c0.834,0,1.847-0.002,2.036-0.002c1.18,0,2.133,1.062,2.133,2.37C220.874,212.981,219.921,214.041,218.741,214.041z"/>
</g>
</svg>
