<?xml version="1.0" encoding="utf-8"?>
<!-- Generator: Adobe Illustrator 16.0.0, SVG Export Plug-In . SVG Version: 6.00 Build 0)  -->
<!DOCTYPE svg PUBLIC "-//W3C//DTD SVG 1.1//EN" "http://www.w3.org/Graphics/SVG/1.1/DTD/svg11.dtd">
<svg version="1.1" id="Logo" xmlns="http://www.w3.org/2000/svg" xmlns:xlink="http://www.w3.org/1999/xlink" x="0px" y="0px"
	 width="140px" height="72px" viewBox="226.542 174.991 140 72" enable-background="new 226.542 174.991 140 72"
	 xml:space="preserve">
<g>
	<path d="M102.387-197.96c-0.161-1.305-0.831-2.538-2.067-3.557c-0.928-0.768-1.881-1.29-2.75-1.852
		c-0.684-0.443-1.198-0.91-1.303-1.538c-0.052-0.323-0.047-0.601,0.006-0.838c0.178-0.787,0.836-1.073,1.446-1.131
		c0.083-0.007,0.167-0.011,0.253-0.011c1.551,0,1.97,1.688,2.036,1.87c0.038,0.107,0.071,0.214,0.098,0.322h2.021
		c-0.017-0.109-0.119-0.602-0.158-0.737c-0.703-2.455-2.997-3.824-5.174-3.847c-0.02,0-0.346,0-0.646,0.031
		c-1.66,0.176-3.186,1.058-3.957,2.305c-0.043,0.07-0.231,0.403-0.342,0.705c-0.522,1.42-0.256,3.044,0.475,4.343
		c0.564,1.005,1.341,1.711,2.259,2.382c0.779,0.568,1.588,1.138,2.135,1.949c0.294,0.437,0.452,0.97,0.449,1.499
		c0,0.65-0.339,1.315-0.908,1.621c-1.228,0.656-2.713,0.133-3.259-1.461c-0.013-0.039-0.152-0.433-0.152-0.433H90.89
		c0.016,0.169,0.041,0.333,0.068,0.494c0.522,2.892,3.077,4.136,5.77,4.136c0.09,0,0.179-0.005,0.268-0.007
		c2.305-0.118,4.49-1.765,5.265-4.247C102.466-196.621,102.469-197.304,102.387-197.96z"/>
	<g>
		<polygon points="116.496,-209.038 105.525,-209.038 105.525,-206.624 108.487,-206.624 108.487,-191.946 113.532,-191.946 
			113.532,-206.624 116.496,-206.624 		"/>
		<path d="M87.001-191.946h-5.047v-17.093h5.047V-191.946z"/>
		<path d="M73.092-209.038c-0.357,0-7.048,0-7.048,0v17.093h5.045v-7.294c0.639,0,1.557-0.001,2.003-0.001
			c2.706,0,4.899-2.193,4.899-4.898S75.798-209.038,73.092-209.038z M73.224-201.652c-0.23,0-1.324,0-2.136,0v-4.972
			c0.873-0.001,1.935-0.001,2.136-0.001c1.235,0,2.236,1.112,2.236,2.486S74.459-201.652,73.224-201.652z"/>
		<polygon points="44.03,-206.77 44.03,-209.036 35.712,-209.036 35.712,-196.022 39.555,-196.022 39.555,-201.611 41.831,-201.611 
			41.831,-203.448 39.555,-203.448 39.555,-206.77 		"/>
		<g>
			<polygon points="54.618,-206.77 54.618,-209.036 46.299,-209.036 46.299,-196.022 54.618,-196.022 54.618,-198.289 
				50.142,-198.289 50.142,-201.611 52.418,-201.611 52.418,-203.448 50.142,-203.448 50.142,-206.77 			"/>
			<polygon points="48.791,-211.305 48.863,-210.389 54.618,-210.389 54.472,-212.221 			"/>
		</g>
		<path d="M31.189-196.022h2.046l-2.845-13.015h-3.743l-3.053,13.015h4.011l0.455-2.13h2.676L31.189-196.022z M28.454-199.989
			l0.948-4.43l0.942,4.43H28.454z"/>
		<g>
			<polygon points="122.081,-193.148 122.178,-191.946 129.738,-191.946 129.544,-194.349 			"/>
			<path d="M125.832-209.279L125.832-209.279c-3.655,0-6.62,2.963-6.62,6.619v0.256c0,3.657,2.964,6.621,6.62,6.621l0,0
				c3.657,0,6.619-2.964,6.619-6.621v-0.128v-0.128C132.451-206.316,129.489-209.279,125.832-209.279z M127.791-202.468
				c0,0.821-0.036,1.791-0.281,2.754c-0.118,0.463-0.479,1.876-1.678,1.876c-1.198,0-1.56-1.413-1.678-1.876
				c-0.244-0.959-0.278-1.924-0.281-2.739c0-0.014,0-0.048,0-0.087c0,0,0-0.078,0-0.095c0.003-0.759,0.038-1.756,0.281-2.714
				c0.119-0.463,0.479-1.874,1.678-1.874c1.199,0,1.56,1.411,1.678,1.874c0.245,0.958,0.28,1.921,0.281,2.736
				C127.791-202.613,127.791-202.49,127.791-202.468z"/>
		</g>
		<g>
			<path d="M96.736-209.279c0.021,0,0.039,0,0.059,0c-0.018,0-0.035,0-0.053,0C96.741-209.279,96.738-209.279,96.736-209.279z"/>
		</g>
		<g>
			<path d="M96.736-209.279c0.021,0,0.039,0,0.059,0c-0.018,0-0.035,0-0.053,0C96.741-209.279,96.738-209.279,96.736-209.279z"/>
		</g>
		<g>
			<path d="M96.736-209.279c0.021,0,0.039,0,0.059,0c-0.018,0-0.035,0-0.053,0C96.741-209.279,96.738-209.279,96.736-209.279z"/>
		</g>
		<g>
			<path d="M96.736-209.279c0.021,0,0.039,0,0.059,0c-0.018,0-0.035,0-0.053,0C96.741-209.279,96.738-209.279,96.736-209.279z"/>
		</g>
		<g>
			<path d="M96.736-209.279c0.021,0,0.039,0,0.059,0c-0.018,0-0.035,0-0.053,0C96.741-209.279,96.738-209.279,96.736-209.279z"/>
		</g>
		<g>
			<path d="M96.736-209.279c0.021,0,0.039,0,0.059,0c-0.018,0-0.035,0-0.053,0C96.741-209.279,96.738-209.279,96.736-209.279z"/>
		</g>
		<path d="M20.073-200.253c-0.101,0.98-0.619,2.299-1.994,2.299c-0.951,0-1.72-0.753-1.72-2.021c0-0.003-0.012-0.921-0.012-1.204
			c0-1.08,0-2.432,0-3.51c0-0.396,0.012-0.394,0.012-0.396c0-1.266,0.769-2.019,1.72-2.019c1.375,0,1.893,1.318,1.994,2.297h1.643
			c-0.063-2.859-2.41-4.472-4.593-4.472c-2.542,0-4.605,2.062-4.605,4.606c0,0.773,0,3.512,0,4.288c0,2.541,2.062,4.604,4.605,4.604
			c2.251,0,4.484-1.661,4.599-4.473H20.073c-0.007,0.075-0.017,0.149-0.029,0.224L20.073-200.253z"/>
		<path d="M145.991-209.038c0,10.145,0,10.477,0,11.445c0,0.108-0.014,0.227-0.014,0.365c0,1.84-0.9,3.039-2.254,3.027
			c-1.248-0.013-2.252-0.932-2.252-2.18c0-0.074-0.009-0.227-0.009-0.448c0-2.342,0-12.21,0-12.21h-5.046c0,1.336,0,10.837,0,11.282
			c0,3.342,2.709,6.049,6.05,6.049c3.343,0,5.92-2.199,6.051-6.049c0.001-0.043,0-0.131,0-0.26c0-1.764,0-11.022,0-11.022H145.991
			L145.991-209.038z"/>
		<g>
			<path d="M96.736-209.279c0.021,0,0.039,0,0.059,0c-0.018,0-0.035,0-0.053,0C96.741-209.279,96.738-209.279,96.736-209.279z"/>
		</g>
	</g>
</g>
<g>
	<polygon points="314.271,184.741 314.271,180.892 300.156,180.892 300.156,202.977 306.674,202.977 306.674,193.493 
		310.535,193.493 310.535,190.378 306.674,190.378 306.674,184.741 	"/>
	<polygon points="332.236,184.741 332.236,180.892 318.122,180.892 318.122,202.977 332.236,202.977 332.236,199.13 324.641,199.13 
		324.641,193.493 328.5,193.493 328.5,190.378 324.641,190.378 324.641,184.741 	"/>
	<polygon points="322.347,177.044 322.471,178.599 332.236,178.599 331.987,175.491 	"/>
	<path d="M292.478,202.977h3.472l-4.827-22.085h-6.352l-5.182,22.085h6.808l0.773-3.613h4.539L292.478,202.977z M287.836,196.245
		l1.608-7.516l1.6,7.516H287.836z"/>
	<path d="M273.617,195.8c-0.173,1.661-1.05,3.898-3.384,3.898c-1.612,0-2.92-1.279-2.92-3.427c0-0.005-0.02-1.564-0.02-2.045
		c0-1.833,0-4.126,0-5.956c0-0.672,0.02-0.667,0.02-0.672c0-2.147,1.308-3.427,2.92-3.427c2.334,0,3.211,2.237,3.384,3.899h2.787
		c-0.109-4.85-4.091-7.587-7.794-7.587c-4.316,0-7.815,3.497-7.815,7.813c0,1.313,0,5.96,0,7.274c0,4.316,3.499,7.814,7.815,7.814
		c3.819,0,7.607-2.819,7.803-7.588L273.617,195.8c-0.014,0.123-0.029,0.25-0.05,0.38L273.617,195.8z"/>
	<polygon points="312.155,217.205 293.535,217.205 293.535,221.3 298.563,221.3 298.563,246.207 307.124,246.207 307.124,221.3 
		312.155,221.3 	"/>
	<path d="M262.103,246.207h-8.565v-29.002h8.565V246.207z"/>
	<path d="M238.503,217.205c-0.607,0-11.961,0-11.961,0v29.002h8.561v-12.376c1.084,0,2.641-0.001,3.4-0.001
		c4.591,0,8.313-3.722,8.313-8.314C246.815,220.925,243.094,217.205,238.503,217.205z M238.728,229.74c-0.393,0-2.249,0-3.625,0.001
		v-8.44c1.481-0.001,3.283-0.002,3.625-0.002c2.095,0,3.794,1.89,3.794,4.22C242.521,227.849,240.822,229.74,238.728,229.74z"/>
	<polygon points="321.63,244.166 321.793,246.207 334.623,246.207 334.294,242.127 	"/>
	<path d="M327.993,216.794L327.993,216.794c-6.201,0-11.232,5.028-11.232,11.233v0.436c0,6.204,5.031,11.233,11.232,11.233l0,0
		c6.205,0,11.234-5.029,11.234-11.233v-0.218v-0.218C339.227,221.822,334.198,216.794,327.993,216.794z M331.318,228.35
		c-0.002,1.397-0.061,3.042-0.477,4.674c-0.203,0.787-0.815,3.183-2.849,3.183c-2.034,0-2.645-2.396-2.845-3.183
		c-0.418-1.626-0.477-3.262-0.48-4.65c0-0.019,0-0.081,0-0.145c0-0.001,0-0.132,0-0.162c0.006-1.288,0.062-2.975,0.48-4.6
		c0.198-0.789,0.811-3.183,2.845-3.183c2.033,0,2.646,2.394,2.849,3.183c0.414,1.625,0.473,3.257,0.477,4.64
		C331.318,228.107,331.318,228.315,331.318,228.35z"/>
	<path d="M362.202,217.205c0,17.212,0,17.777,0,19.42c0,0.183-0.025,0.384-0.025,0.62c0,3.12-1.527,5.155-3.824,5.137
		c-2.117-0.021-3.82-1.582-3.82-3.701c0-0.124-0.015-0.385-0.015-0.758c0-3.977,0-20.718,0-20.718h-8.563c0,2.266,0,18.387,0,19.142
		c0,5.67,4.598,10.266,10.268,10.266c5.672,0,10.043-3.732,10.266-10.266c0.003-0.072,0-0.222,0-0.441c0-2.991,0-18.7,0-18.7
		H362.202z"/>
	<path d="M288.212,236.002c-0.275-2.216-1.411-4.308-3.51-6.04c-1.577-1.299-3.191-2.188-4.665-3.139
		c-1.162-0.752-2.035-1.544-2.21-2.611c-0.089-0.549-0.081-1.019,0.01-1.422c0.3-1.336,1.419-1.82,2.451-1.917
		c0.143-0.014,0.287-0.021,0.432-0.021c2.631,0,3.343,2.863,3.453,3.174c0.066,0.183,0.119,0.367,0.169,0.548h3.428
		c-0.026-0.184-0.202-1.02-0.269-1.252c-1.194-4.168-5.088-6.489-8.779-6.526c-0.032,0-0.589,0-1.097,0.053
		c-2.819,0.299-5.408,1.792-6.715,3.91c-0.074,0.121-0.393,0.683-0.581,1.195c-0.888,2.41-0.435,5.166,0.806,7.371
		c0.957,1.703,2.276,2.903,3.833,4.039c1.323,0.965,2.698,1.931,3.623,3.31c0.499,0.741,0.765,1.645,0.765,2.544
		c-0.003,1.106-0.575,2.231-1.544,2.749c-2.084,1.114-4.603,0.229-5.528-2.479c-0.021-0.065-0.26-0.731-0.26-0.731h-3.321
		c0.026,0.287,0.067,0.564,0.116,0.838c0.884,4.908,5.221,7.02,9.791,7.02c0.151,0,0.301-0.009,0.451-0.014
		c3.911-0.2,7.62-2.994,8.933-7.204C288.344,238.272,288.351,237.11,288.212,236.002z"/>
</g>
</svg>
