<?xml version="1.0" encoding="utf-8"?>
<!-- Generator: Adobe Illustrator 16.0.0, SVG Export Plug-In . SVG Version: 6.00 Build 0)  -->
<!DOCTYPE svg PUBLIC "-//W3C//DTD SVG 1.1//EN" "http://www.w3.org/Graphics/SVG/1.1/DTD/svg11.dtd">
<svg version="1.1" id="Logo" xmlns="http://www.w3.org/2000/svg" xmlns:xlink="http://www.w3.org/1999/xlink" x="0px" y="0px"
	 width="136px" height="21px" viewBox="178.479 198.053 136 21" enable-background="new 178.479 198.053 136 21"
	 xml:space="preserve">
<g>
	<path d="M268.349,212.668c-0.161-1.305-0.831-2.538-2.067-3.557c-0.928-0.768-1.881-1.29-2.75-1.852
		c-0.684-0.443-1.198-0.91-1.303-1.538c-0.052-0.323-0.047-0.601,0.006-0.838c0.178-0.787,0.836-1.073,1.446-1.131
		c0.083-0.007,0.167-0.011,0.253-0.011c1.551,0,1.97,1.688,2.036,1.87c0.038,0.107,0.071,0.214,0.098,0.322h2.021
		c-0.017-0.109-0.119-0.602-0.158-0.737c-0.703-2.455-2.997-3.824-5.174-3.847c-0.02,0-0.346,0-0.646,0.031
		c-1.66,0.176-3.186,1.058-3.957,2.305c-0.043,0.07-0.231,0.403-0.342,0.705c-0.522,1.42-0.256,3.044,0.475,4.343
		c0.564,1.005,1.341,1.711,2.259,2.382c0.779,0.568,1.588,1.138,2.135,1.949c0.294,0.437,0.452,0.97,0.449,1.499
		c0,0.65-0.339,1.315-0.908,1.621c-1.228,0.656-2.713,0.133-3.259-1.461c-0.013-0.039-0.152-0.433-0.152-0.433h-1.958
		c0.016,0.169,0.041,0.333,0.068,0.494c0.522,2.892,3.077,4.136,5.77,4.136c0.09,0,0.179-0.005,0.268-0.007
		c2.305-0.118,4.49-1.765,5.265-4.247C268.428,214.007,268.431,213.324,268.349,212.668z"/>
	<g>
		<polygon points="282.458,201.59 271.487,201.59 271.487,204.004 274.449,204.004 274.449,218.682 279.494,218.682 
			279.494,204.004 282.458,204.004 		"/>
		<path d="M252.963,218.682h-5.047V201.59h5.047V218.682z"/>
		<path d="M239.054,201.59c-0.357,0-7.048,0-7.048,0v17.093h5.045v-7.294c0.639,0,1.557-0.001,2.003-0.001
			c2.706,0,4.899-2.193,4.899-4.898S241.76,201.59,239.054,201.59z M239.186,208.976c-0.23,0-1.324,0-2.136,0v-4.972
			c0.873-0.001,1.935-0.001,2.136-0.001c1.235,0,2.236,1.112,2.236,2.486S240.421,208.976,239.186,208.976z"/>
		<polygon points="209.992,203.858 209.992,201.592 201.674,201.592 201.674,214.606 205.517,214.606 205.517,209.017 
			207.792,209.017 207.792,207.18 205.517,207.18 205.517,203.858 		"/>
		<g>
			<polygon points="220.58,203.858 220.58,201.592 212.261,201.592 212.261,214.606 220.58,214.606 220.58,212.339 216.104,212.339 
				216.104,209.017 218.38,209.017 218.38,207.18 216.104,207.18 216.104,203.858 			"/>
			<polygon points="214.752,199.323 214.825,200.239 220.58,200.239 220.434,198.407 			"/>
		</g>
		<path d="M197.151,214.606h2.046l-2.845-13.015h-3.743l-3.053,13.015h4.011l0.455-2.13h2.676L197.151,214.606z M194.416,210.639
			l0.948-4.43l0.942,4.43H194.416z"/>
		<g>
			<polygon points="288.042,217.48 288.14,218.682 295.7,218.682 295.506,216.279 			"/>
			<path d="M291.793,201.349L291.793,201.349c-3.655,0-6.62,2.963-6.62,6.619v0.256c0,3.657,2.964,6.621,6.62,6.621l0,0
				c3.657,0,6.619-2.964,6.619-6.621v-0.128v-0.128C298.413,204.312,295.451,201.349,291.793,201.349z M293.752,208.16
				c0,0.821-0.036,1.791-0.281,2.754c-0.118,0.463-0.479,1.876-1.678,1.876c-1.198,0-1.56-1.413-1.678-1.876
				c-0.244-0.959-0.278-1.924-0.281-2.739c0-0.014,0-0.048,0-0.087c0,0,0-0.078,0-0.095c0.003-0.759,0.038-1.756,0.281-2.714
				c0.119-0.463,0.479-1.874,1.678-1.874c1.199,0,1.56,1.411,1.678,1.874c0.245,0.958,0.28,1.921,0.281,2.736
				C293.752,208.015,293.752,208.137,293.752,208.16z"/>
		</g>
		<g>
			<path d="M262.698,201.349c0.021,0,0.039,0,0.059,0c-0.018,0-0.035,0-0.053,0C262.703,201.349,262.7,201.349,262.698,201.349z"/>
		</g>
		<g>
			<path d="M262.698,201.349c0.021,0,0.039,0,0.059,0c-0.018,0-0.035,0-0.053,0C262.703,201.349,262.7,201.349,262.698,201.349z"/>
		</g>
		<g>
			<path d="M262.698,201.349c0.021,0,0.039,0,0.059,0c-0.018,0-0.035,0-0.053,0C262.703,201.349,262.7,201.349,262.698,201.349z"/>
		</g>
		<g>
			<path d="M262.698,201.349c0.021,0,0.039,0,0.059,0c-0.018,0-0.035,0-0.053,0C262.703,201.349,262.7,201.349,262.698,201.349z"/>
		</g>
		<g>
			<path d="M262.698,201.349c0.021,0,0.039,0,0.059,0c-0.018,0-0.035,0-0.053,0C262.703,201.349,262.7,201.349,262.698,201.349z"/>
		</g>
		<g>
			<path d="M262.698,201.349c0.021,0,0.039,0,0.059,0c-0.018,0-0.035,0-0.053,0C262.703,201.349,262.7,201.349,262.698,201.349z"/>
		</g>
		<path d="M186.035,210.375c-0.101,0.98-0.619,2.299-1.994,2.299c-0.951,0-1.72-0.753-1.72-2.021c0-0.003-0.012-0.921-0.012-1.204
			c0-1.08,0-2.432,0-3.51c0-0.396,0.012-0.394,0.012-0.396c0-1.266,0.769-2.019,1.72-2.019c1.375,0,1.893,1.318,1.994,2.297h1.643
			c-0.063-2.859-2.41-4.472-4.593-4.472c-2.542,0-4.605,2.062-4.605,4.606c0,0.773,0,3.512,0,4.288c0,2.541,2.062,4.604,4.605,4.604
			c2.251,0,4.484-1.661,4.599-4.473H186.035c-0.007,0.075-0.017,0.149-0.029,0.224L186.035,210.375z"/>
		<path d="M311.953,201.59c0,10.145,0,10.477,0,11.445c0,0.108-0.014,0.227-0.014,0.365c0,1.84-0.9,3.039-2.254,3.027
			c-1.248-0.013-2.252-0.932-2.252-2.18c0-0.074-0.009-0.227-0.009-0.448c0-2.342,0-12.21,0-12.21h-5.046c0,1.336,0,10.837,0,11.282
			c0,3.342,2.709,6.049,6.05,6.049c3.343,0,5.92-2.199,6.051-6.049c0.001-0.043,0-0.131,0-0.26c0-1.764,0-11.022,0-11.022H311.953
			L311.953,201.59z"/>
		<g>
			<path d="M262.698,201.349c0.021,0,0.039,0,0.059,0c-0.018,0-0.035,0-0.053,0C262.703,201.349,262.7,201.349,262.698,201.349z"/>
		</g>
	</g>
</g>
<g>
	<polygon points="-365.937,-259.071 -365.937,-273.286 -418.074,-273.286 -418.074,-191.706 -393.992,-191.706 -393.992,-226.739 
		-379.728,-226.739 -379.728,-238.254 -393.992,-238.254 -393.992,-259.071 	"/>
	<polygon points="-299.574,-259.071 -299.574,-273.286 -351.712,-273.286 -351.712,-191.706 -299.574,-191.706 -299.574,-205.92 
		-327.63,-205.92 -327.63,-226.739 -313.365,-226.739 -313.365,-238.254 -327.63,-238.254 -327.63,-259.071 	"/>
	<polygon points="-336.101,-287.504 -335.642,-281.765 -299.574,-281.765 -300.492,-293.24 	"/>
	<path d="M-446.434-191.706h12.824l-17.831-81.58h-23.461l-19.14,81.58h25.143l2.859-13.349h16.765L-446.434-191.706z
		 M-463.577-216.573l5.942-27.761l5.909,27.761H-463.577z"/>
	<path d="M-516.107-218.222c-0.636,6.137-3.876,14.399-12.501,14.399c-5.958,0-10.784-4.724-10.784-12.657
		c0-0.019-0.071-5.775-0.071-7.552c0-6.77,0-15.243,0-22c0-2.483,0.071-2.466,0.071-2.483c0-7.935,4.826-12.657,10.784-12.657
		c8.625,0,11.865,8.263,12.501,14.4h10.296c-0.401-17.916-15.111-28.026-28.792-28.026c-15.943,0-28.865,12.923-28.865,28.864
		c0,4.853,0,22.021,0,26.875c0,15.938,12.922,28.864,28.865,28.864c14.112,0,28.105-10.413,28.822-28.03h-10.326
		c-0.047,0.459-0.11,0.929-0.186,1.407L-516.107-218.222z"/>
	<polygon points="-373.755,-139.152 -442.529,-139.152 -442.529,-124.028 -423.955,-124.028 -423.955,-32.018 -392.332,-32.018 
		-392.332,-124.028 -373.755,-124.028 	"/>
	<path d="M-558.636-32.017h-31.64v-107.135h31.64V-32.017z"/>
	<path d="M-645.816-139.152c-2.242,0-44.184,0-44.184,0v107.134h31.623V-77.74c4.005,0,9.756-0.002,12.561-0.002
		c16.958,0,30.706-13.748,30.706-30.707C-615.111-125.406-628.858-139.152-645.816-139.152z M-644.987-92.851
		c-1.449,0-8.305,0.001-13.39,0.003v-31.174c5.474-0.006,12.128-0.01,13.39-0.01c7.742,0,14.017,6.979,14.017,15.59
		C-630.971-99.832-637.246-92.851-644.987-92.851z"/>
	<polygon points="-338.75,-39.556 -338.146,-32.018 -290.759,-32.018 -291.966,-47.088 	"/>
	<path d="M-315.244-140.667L-315.244-140.667c-22.914,0-41.494,18.579-41.494,41.494v1.611c0,22.915,18.58,41.493,41.494,41.493l0,0
		c22.918,0,41.494-18.578,41.494-41.493v-0.807v-0.806C-273.75-122.088-292.326-140.667-315.244-140.667z M-302.957-97.98
		c-0.01,5.157-0.229,11.237-1.77,17.266c-0.744,2.907-3.002,11.754-10.518,11.754c-7.514,0-9.77-8.847-10.514-11.754
		c-1.537-6.008-1.756-12.053-1.77-17.175c0-0.072,0-0.301,0-0.538c0-0.002,0-0.485,0-0.596c0.018-4.757,0.234-10.997,1.77-16.999
		c0.742-2.906,3-11.752,10.514-11.752c7.516,0,9.773,8.846,10.518,11.753c1.533,6.002,1.754,12.034,1.77,17.144
		C-302.957-98.877-302.957-98.11-302.957-97.98z"/>
	<path d="M-188.88-139.152c0,63.579,0,65.67,0,71.733c0,0.679-0.088,1.422-0.088,2.29c0,11.531-5.646,19.05-14.125,18.976
		c-7.826-0.07-14.125-5.842-14.125-13.665c0-0.458-0.043-1.423-0.043-2.803c0-14.688,0-76.531,0-76.531h-31.633
		c0,8.367,0,67.922,0,70.709c0,20.943,16.979,37.923,37.924,37.923s37.104-13.791,37.922-37.923c0.01-0.266,0-0.821,0-1.627
		c0-11.053,0-69.082,0-69.082H-188.88z"/>
	<path d="M-462.187-69.714c-1.022-8.188-5.218-15.916-12.969-22.309c-5.821-4.802-11.787-8.078-17.231-11.602
		c-4.292-2.773-7.516-5.701-8.163-9.644c-0.331-2.024-0.299-3.766,0.034-5.25c1.11-4.934,5.243-6.725,9.059-7.082
		c0.524-0.049,1.057-0.074,1.596-0.074c9.711,0,12.342,10.576,12.753,11.726c0.241,0.671,0.441,1.347,0.621,2.021h12.66
		c-0.098-0.683-0.744-3.775-0.989-4.625c-4.411-15.396-18.796-23.974-32.431-24.108c-0.122-0.002-2.175,0-4.049,0.198
		c-10.414,1.099-19.975,6.618-24.807,14.441c-0.276,0.446-1.451,2.522-2.146,4.414c-3.273,8.903-1.605,19.082,2.976,27.23
		c3.536,6.29,8.409,10.722,14.166,14.919c4.883,3.562,9.956,7.135,13.376,12.224c1.844,2.739,2.829,6.078,2.825,9.394
		c-0.006,4.089-2.123,8.249-5.7,10.161c-7.698,4.117-17.004,0.841-20.421-9.158c-0.082-0.24-0.961-2.71-0.961-2.71h-12.271
		c0.1,1.065,0.251,2.093,0.431,3.101c3.266,18.13,19.283,25.929,36.162,25.929c0.562,0,1.114-0.028,1.67-0.047
		c14.449-0.744,28.151-11.062,32.999-26.614C-461.703-61.33-461.676-65.616-462.187-69.714z"/>
</g>
</svg>
